<svg width="1286" height="568" viewBox="0 0 1286 568" fill="none" xmlns="http://www.w3.org/2000/svg">
<g opacity="0.63">
<path d="M182.687 361.878C182.687 361.878 311.683 406.056 486.694 288.926C622.21 198.237 713.549 219.386 819.641 361.575C925.747 503.749 969.897 588.194 1150.24 530.299" stroke="white" stroke-miterlimit="10"/>
<path d="M183.115 358.909C183.115 358.909 313.493 399.343 488.047 288.237C623.494 202.023 713.618 227.911 821.257 366.576C928.896 505.256 971.057 585.515 1150.89 529.624" stroke="#F9F9F9" stroke-miterlimit="10"/>
<path d="M183.543 355.954C183.543 355.954 315.344 392.631 489.401 287.547C624.793 205.795 713.673 236.421 822.873 371.592C932.06 506.762 972.217 582.836 1151.55 528.962" stroke="#F3F3F3" stroke-miterlimit="10"/>
<path d="M183.986 352.997C183.986 352.997 317.236 385.93 490.755 286.856C626.119 209.58 713.742 244.93 824.476 376.606C935.21 508.267 973.378 580.156 1152.19 528.298" stroke="#ECECEC" stroke-miterlimit="10"/>
<path d="M184.415 350.027C184.415 350.027 319.143 379.216 492.11 286.165C627.474 213.337 713.812 253.453 826.093 381.62C938.374 509.787 974.539 577.476 1152.84 527.635" stroke="#E6E6E6" stroke-miterlimit="10"/>
<path d="M184.843 347.07C184.843 347.07 321.091 372.516 493.449 285.473C628.827 217.107 713.867 261.962 827.695 386.62C941.523 511.278 975.685 574.781 1153.49 526.943" stroke="#E0E0E0" stroke-miterlimit="10"/>
<path d="M185.271 344.1C185.271 344.1 323.066 365.802 494.803 284.783C630.236 220.879 713.936 270.471 829.311 391.634C944.686 512.797 976.845 572.101 1154.15 526.28" stroke="#DADADA" stroke-miterlimit="10"/>
<path d="M185.699 341.144C185.699 341.144 325.083 359.116 496.157 284.091C631.673 224.65 713.991 278.994 830.914 396.648C947.836 514.303 978.006 569.421 1154.79 525.617" stroke="#D3D3D3" stroke-miterlimit="10"/>
<path d="M186.141 338.188C186.141 338.188 327.155 352.444 497.51 283.416C633.137 228.449 714.06 287.518 832.529 401.678C950.999 515.81 979.166 566.742 1155.43 524.941" stroke="#CDCDCD" stroke-miterlimit="10"/>
<path d="M186.569 335.219C186.569 335.219 329.255 345.787 498.864 282.712C634.643 232.221 714.129 296.029 834.146 406.665C954.163 517.316 980.326 564.063 1156.1 524.278" stroke="#C7C7C7" stroke-miterlimit="10"/>
<path d="M186.998 332.262C186.998 332.262 331.383 339.155 500.205 282.02C636.163 236.019 714.185 304.537 835.735 411.679C957.299 518.821 981.474 561.382 1156.73 523.6" stroke="#C1C1C1" stroke-miterlimit="10"/>
<path d="M187.425 329.292C187.425 329.292 333.537 332.524 501.557 281.329C637.709 239.832 714.239 313.046 837.35 416.693C960.461 520.34 982.633 558.702 1157.38 522.937" stroke="#BBBBBB" stroke-miterlimit="10"/>
<path d="M187.854 326.335C187.854 326.335 335.747 325.948 502.898 280.638C639.284 243.672 714.295 321.569 838.953 421.707C963.598 521.845 983.78 556.021 1158.03 522.274" stroke="#B4B4B4" stroke-miterlimit="10"/>
<path d="M188.282 323.379C188.282 323.379 337.986 319.401 504.252 279.962C640.915 247.54 714.364 330.093 840.57 426.722C966.761 523.352 984.954 553.342 1158.68 521.611" stroke="#AEAEAE" stroke-miterlimit="10"/>
<path d="M188.725 320.411C188.725 320.411 340.265 312.882 505.62 279.258C642.573 251.409 714.447 338.59 842.186 431.724C969.925 524.859 986.115 550.649 1159.34 520.935" stroke="#A8A8A8" stroke-miterlimit="10"/>
<path d="M189.152 317.454C189.152 317.454 342.571 306.417 506.959 278.568C644.216 255.319 714.502 347.113 843.788 436.739C973.074 526.364 987.261 547.97 1159.98 520.259" stroke="#A2A2A2" stroke-miterlimit="10"/>
<path d="M189.581 314.497C189.581 314.497 344.893 299.992 508.313 277.89C645.915 259.268 714.558 355.635 845.405 441.752C976.238 527.869 988.436 545.288 1160.64 519.594" stroke="#9B9B9B" stroke-miterlimit="10"/>
<path d="M190.009 311.528C190.009 311.528 347.241 293.611 509.654 277.186C647.615 263.234 714.613 364.132 847.007 446.754C979.388 529.376 989.583 542.596 1161.28 518.918" stroke="#959595" stroke-miterlimit="10"/>
<path d="M190.437 308.57C190.437 308.57 349.603 287.282 511.007 276.507C649.341 267.266 714.682 372.667 848.609 451.78C982.537 530.893 990.728 539.928 1161.93 518.267" stroke="#8F8F8F" stroke-miterlimit="10"/>
<path d="M190.879 305.602C190.879 305.602 352.007 280.999 512.374 275.805C651.081 271.315 714.764 381.165 850.239 456.783C985.714 532.401 991.916 537.236 1162.59 517.592" stroke="#898989" stroke-miterlimit="10"/>
<path d="M191.308 302.645C191.308 302.645 354.383 274.768 513.715 275.127C652.823 275.431 714.82 389.687 851.842 461.811C988.864 533.92 993.064 534.569 1163.24 516.929" stroke="#838383" stroke-miterlimit="10"/>
<path d="M191.736 299.689C191.736 299.689 356.786 268.607 515.068 274.437C654.563 279.576 714.875 398.211 853.458 466.811C992.027 535.412 994.224 531.889 1163.89 516.252" stroke="#7C7C7C" stroke-miterlimit="10"/>
<path d="M192.164 296.719C192.164 296.719 359.162 262.474 516.408 273.732C656.303 283.761 714.93 406.707 855.047 471.812C995.163 536.918 995.37 529.196 1164.52 515.575" stroke="#767676" stroke-miterlimit="10"/>
<path d="M192.593 293.762C192.593 293.762 361.553 256.395 517.762 273.055C658.031 288.015 715 415.243 856.663 476.84C998.327 538.437 996.531 526.529 1165.17 514.925" stroke="#707070" stroke-miterlimit="10"/>
<path d="M193.02 290.793C193.02 290.793 363.914 250.359 519.101 272.351C659.742 292.285 715.054 423.739 858.264 481.828C1001.48 539.943 997.69 523.836 1165.82 514.249" stroke="#6A6A6A" stroke-miterlimit="10"/>
<path d="M193.462 287.836C193.462 287.836 366.276 244.391 520.469 271.674C661.47 296.622 715.137 432.262 859.895 486.855C1004.65 541.448 998.851 521.156 1166.48 513.572" stroke="#646464" stroke-miterlimit="10"/>
<path d="M193.891 284.879C193.891 284.879 368.611 238.45 521.823 270.982C663.155 300.986 715.193 440.77 861.498 491.869C1007.8 542.953 1000.01 518.474 1167.13 512.907" stroke="#5D5D5D" stroke-miterlimit="10"/>
<path d="M194.318 281.909C194.318 281.909 370.904 232.538 523.163 270.292C664.812 305.407 715.247 449.294 863.1 496.884C1010.95 544.473 1001.16 515.795 1167.77 512.245" stroke="#575757" stroke-miterlimit="10"/>
<path d="M194.747 278.955C194.747 278.955 373.183 226.683 524.517 269.603C666.456 309.857 715.317 457.806 864.716 501.886C1014.12 545.967 1002.32 513.103 1168.43 511.57" stroke="#515151" stroke-miterlimit="10"/>
<path d="M195.175 275.997C195.175 275.997 375.421 220.851 525.857 268.91C668.059 314.331 715.386 466.313 866.319 506.899C1017.25 547.484 1003.48 510.421 1169.07 510.905" stroke="#4B4B4B" stroke-miterlimit="10"/>
<path d="M195.617 273.027C195.617 273.027 377.646 215.035 527.225 268.219C669.634 318.848 715.455 474.836 867.935 511.913C1020.42 548.99 1004.64 507.741 1169.73 510.228" stroke="#444444" stroke-miterlimit="10"/>
<path d="M196.045 270.071C196.045 270.071 379.814 209.261 528.578 267.529C671.181 323.379 715.51 483.346 869.551 516.928C1023.58 550.496 1005.8 505.062 1170.38 509.565" stroke="#3E3E3E" stroke-miterlimit="10"/>
<path d="M196.474 267.101C196.474 267.101 381.942 203.487 529.918 266.838C672.673 327.938 715.566 491.869 871.154 521.929C1026.73 552.002 1006.96 502.368 1171.03 508.888" stroke="#383838" stroke-miterlimit="10"/>
<path d="M196.902 264.146C196.902 264.146 384.042 197.742 531.272 266.149C674.137 332.526 715.635 500.38 872.756 526.945C1029.88 553.509 1008.11 499.704 1171.67 508.227" stroke="#323232" stroke-miterlimit="10"/>
<path d="M197.33 261.189C197.33 261.189 386.1 192.008 532.612 265.457C675.56 337.125 715.69 508.903 874.358 531.958C1033.03 555.014 1009.25 497.022 1172.31 507.549" stroke="#2C2C2C" stroke-miterlimit="10"/>
<path d="M197.759 258.218C197.759 258.218 388.117 186.261 533.966 264.766C676.955 341.738 715.759 517.411 875.975 536.972C1036.19 556.519 1010.43 494.328 1172.98 506.885" stroke="#252525" stroke-miterlimit="10"/>
<path d="M198.201 255.263C198.201 255.263 390.106 180.529 535.334 264.077C678.309 346.353 715.815 525.922 877.591 541.988C1039.35 558.04 1011.59 491.663 1173.63 506.223" stroke="#1F1F1F" stroke-miterlimit="10"/>
<path d="M198.628 252.293C198.628 252.293 392.053 174.782 536.673 263.385C679.635 350.967 715.883 534.445 879.193 546.988C1042.5 559.531 1012.73 488.969 1174.26 505.546" stroke="#191919" stroke-miterlimit="10"/>
<path d="M199.057 249.336C199.057 249.336 393.974 169.049 538.027 262.695C680.934 355.594 715.952 542.954 880.81 552.003C1045.67 561.051 1013.91 486.289 1174.93 504.883" stroke="#131313" stroke-miterlimit="10"/>
<path d="M199.486 246.379C199.486 246.379 395.853 163.315 539.367 262.016C682.177 360.234 716.008 551.476 882.412 557.029C1048.82 562.569 1015.06 483.621 1175.56 504.218" stroke="#0C0C0C" stroke-miterlimit="10"/>
<path d="M199.914 243.41C199.914 243.41 397.704 157.555 540.721 261.313C683.421 364.835 716.077 559.986 884.029 562.017C1051.98 564.062 1016.22 480.915 1176.22 503.528" stroke="#060606" stroke-miterlimit="10"/>
<path d="M200.342 240.456C200.342 240.456 399.527 151.797 542.075 260.624C684.622 369.451 716.132 568.498 885.631 567.034C1055.13 565.57 1017.38 478.237 1176.86 502.868" stroke="#BCE008" stroke-miterlimit="10"/>
<g opacity="0.3">
<path d="M202.193 332.774C202.193 332.774 399.527 337.333 505.343 222.634C611.159 107.936 710.993 65.0298 839.354 238.825C967.728 412.605 1088.5 511.348 1285.16 361.908" stroke="white" stroke-miterlimit="10"/>
<path d="M1282.25 364.876C1090.4 510.67 973.543 407.286 843.097 237.759C712.651 68.2332 614.75 117.259 504.279 225.272C393.808 333.284 200.314 323.766 197.261 324.802" stroke="#F9F9F9" stroke-miterlimit="10"/>
<path d="M1279.33 367.847C1092.28 509.994 979.346 401.968 846.827 236.696C714.309 71.4246 618.342 126.598 503.202 227.91C388.061 329.223 198.435 314.746 192.33 316.831" stroke="#F3F3F3" stroke-miterlimit="10"/>
<path d="M1276.43 370.816C1094.17 509.316 985.161 396.648 850.57 235.631C715.98 74.6286 621.933 135.922 502.151 230.548C382.356 325.174 196.57 305.738 187.425 308.86" stroke="#ECECEC" stroke-miterlimit="10"/>
<path d="M1273.52 373.787C1096.05 508.639 990.963 391.317 854.3 234.582C717.638 77.8341 625.525 145.274 501.074 233.201C376.623 321.127 194.692 296.732 182.494 300.904" stroke="#E6E6E6" stroke-miterlimit="10"/>
<path d="M1270.6 376.757C1097.93 507.977 996.779 385.999 858.03 233.519C719.281 81.0395 629.117 154.599 499.997 235.854C370.89 317.094 192.799 287.725 177.548 292.947" stroke="#E0E0E0" stroke-miterlimit="10"/>
<path d="M1267.7 379.729C1099.83 507.302 1002.59 380.682 861.773 232.457C720.953 84.2325 632.708 163.94 498.933 238.494C365.157 313.049 190.934 278.721 172.63 284.978" stroke="#DADADA" stroke-miterlimit="10"/>
<path d="M1264.79 382.698C1101.71 506.624 1008.4 375.362 865.503 231.406C722.611 87.4498 636.3 173.277 497.869 241.145C359.438 309 189.055 269.713 167.713 277.02" stroke="#D3D3D3" stroke-miterlimit="10"/>
<path d="M1261.87 385.667C1103.59 505.946 1014.2 370.043 869.233 230.342C724.268 90.654 639.878 182.614 496.792 243.783C353.705 304.952 187.163 260.705 162.781 269.049" stroke="#CDCDCD" stroke-miterlimit="10"/>
<path d="M1258.97 388.638C1105.48 505.27 1020.03 364.726 872.977 229.293C725.94 93.8599 643.484 191.954 495.728 246.436C347.973 300.919 185.298 251.699 157.849 261.093" stroke="#C7C7C7" stroke-miterlimit="10"/>
<path d="M1256.06 391.608C1107.36 504.593 1025.83 359.407 876.707 228.229C727.584 97.0508 647.061 201.278 494.651 249.075C342.24 296.857 183.405 242.679 152.918 253.108" stroke="#C1C1C1" stroke-miterlimit="10"/>
<path d="M1253.14 394.578C1109.25 503.93 1031.63 354.089 880.436 227.165C729.241 100.255 650.653 210.616 493.587 251.713C336.521 292.809 181.54 233.671 148 245.137" stroke="#BBBBBB" stroke-miterlimit="10"/>
<path d="M1250.23 397.548C1111.13 503.253 1037.43 348.757 884.167 226.116C730.899 103.461 654.231 219.955 492.51 254.366C330.788 288.776 179.648 224.665 143.055 237.181" stroke="#B4B4B4" stroke-miterlimit="10"/>
<path d="M1247.32 400.517C1113.02 502.576 1043.25 343.438 887.91 225.051C732.57 106.665 657.836 229.292 491.446 257.003C325.055 284.714 177.783 215.658 138.136 229.209" stroke="#AEAEAE" stroke-miterlimit="10"/>
<path d="M1244.41 403.487C1114.9 501.899 1049.06 338.119 891.64 223.987C734.214 109.856 661.414 238.616 490.368 259.641C319.322 280.666 175.89 206.637 133.205 221.238" stroke="#A8A8A8" stroke-miterlimit="10"/>
<path d="M1241.5 406.457C1116.78 501.222 1054.87 332.801 895.37 222.937C735.872 113.06 665.006 247.955 489.305 262.294C313.603 276.633 174.026 197.644 128.287 213.281" stroke="#A2A2A2" stroke-miterlimit="10"/>
<path d="M1238.59 409.427C1118.69 500.545 1060.68 327.482 899.113 221.874C737.543 116.265 668.597 257.293 488.241 264.932C307.87 272.571 172.147 188.623 123.355 205.311" stroke="#9B9B9B" stroke-miterlimit="10"/>
<path d="M1235.68 412.409C1120.57 499.88 1066.48 322.162 902.843 220.822C739.202 119.468 672.189 266.629 487.164 267.582C302.138 268.536 170.268 179.614 118.424 197.352" stroke="#959595" stroke-miterlimit="10"/>
<path d="M1232.76 415.381C1122.45 499.205 1072.3 316.859 906.573 219.774C740.859 122.689 675.767 275.983 486.086 270.237C296.405 264.504 168.376 170.623 113.492 189.397" stroke="#8F8F8F" stroke-miterlimit="10"/>
<path d="M1229.86 418.338C1124.34 498.529 1078.12 311.528 910.317 218.697C742.517 125.867 679.373 285.295 485.036 272.862C290.7 260.43 166.525 161.59 108.589 181.413" stroke="#898989" stroke-miterlimit="10"/>
<path d="M1226.95 421.308C1126.22 497.851 1083.92 306.209 914.046 217.633C744.175 129.071 682.951 294.619 483.959 275.5C284.953 256.382 164.632 152.583 103.643 173.442" stroke="#838383" stroke-miterlimit="10"/>
<path d="M1221.12 427.262C1129.99 496.512 1095.54 295.573 921.506 215.534C747.49 135.495 690.12 313.31 481.804 280.805C273.488 248.301 160.861 134.584 93.7802 157.529" stroke="#767676" stroke-miterlimit="10"/>
<path d="M1224.03 424.29C1128.11 497.187 1089.72 300.889 917.776 216.596C745.832 132.289 686.542 303.984 482.881 278.165C279.22 252.347 162.74 143.589 98.7113 165.498" stroke="#7C7C7C" stroke-miterlimit="10"/>
<path d="M1218.22 430.231C1131.88 495.834 1101.35 290.253 925.249 214.469C749.147 138.685 693.725 322.647 480.74 283.457C267.768 244.252 158.996 125.576 88.8618 149.557" stroke="#707070" stroke-miterlimit="10"/>
<path d="M1215.3 433.201C1133.76 495.157 1107.15 284.934 928.98 213.419C750.806 141.904 697.304 331.985 479.676 286.109C262.036 240.218 157.118 116.569 83.9306 141.6" stroke="#6A6A6A" stroke-miterlimit="10"/>
<path d="M1212.39 436.172C1135.65 494.495 1112.96 279.618 932.709 212.357C752.463 145.096 700.895 341.311 478.599 288.749C256.316 236.172 155.239 107.55 79.0126 133.631" stroke="#646464" stroke-miterlimit="10"/>
<path d="M1209.49 439.142C1137.54 493.818 1118.78 274.299 936.452 211.306C754.134 148.314 704.486 350.663 477.535 291.4C250.583 232.124 153.36 98.5423 74.0806 125.659" stroke="#5D5D5D" stroke-miterlimit="10"/>
<path d="M1206.57 442.112C1139.42 493.141 1124.59 268.98 940.183 210.243C755.792 151.505 708.078 359.987 476.471 294.039C244.851 228.077 151.481 89.5353 69.1493 117.702" stroke="#575757" stroke-miterlimit="10"/>
<path d="M1203.66 445.081C1141.3 492.463 1130.39 263.661 943.912 209.178C757.436 154.71 711.67 369.325 475.394 296.677C239.118 224.028 149.602 80.528 64.2175 109.731" stroke="#515151" stroke-miterlimit="10"/>
<path d="M1200.76 448.053C1143.19 491.788 1136.2 258.331 947.656 208.13C759.107 157.916 715.262 378.665 474.33 299.331C233.399 219.983 147.724 71.5231 59.2997 101.762" stroke="#4B4B4B" stroke-miterlimit="10"/>
<path d="M1197.84 451.02C1145.09 491.109 1142.01 253.01 951.386 207.064C760.765 161.119 718.853 387.987 473.253 301.967C227.666 215.933 145.845 62.5137 54.3679 93.8026" stroke="#444444" stroke-miterlimit="10"/>
<path d="M1194.93 453.992C1146.97 490.447 1147.82 247.693 955.115 206.002C762.423 164.311 722.431 397.327 472.175 304.607C221.919 211.887 143.952 53.4947 49.4226 85.8335" stroke="#3E3E3E" stroke-miterlimit="10"/>
<path d="M1192.03 456.961C1148.86 489.77 1153.64 242.374 958.859 204.952C764.081 167.515 726.037 406.664 471.125 307.259C216.214 207.839 142.087 44.4874 44.5185 77.8622" stroke="#383838" stroke-miterlimit="10"/>
<path d="M1189.11 459.931C1150.74 489.093 1159.44 237.055 962.589 203.888C765.738 170.72 729.614 416.003 470.047 309.897C210.481 203.791 140.209 35.4805 39.5867 69.9051" stroke="#323232" stroke-miterlimit="10"/>
<path d="M1186.2 462.901C1152.63 488.415 1165.26 231.736 966.333 202.823C767.41 173.911 733.22 425.327 468.984 312.535C204.749 199.743 138.33 26.4732 34.6558 61.9339" stroke="#2C2C2C" stroke-miterlimit="10"/>
<path d="M1183.28 465.872C1154.51 487.74 1171.06 226.406 970.063 201.775C769.068 177.131 736.798 434.666 467.907 315.189C199.029 195.697 136.452 17.4678 29.7378 53.9646" stroke="#252525" stroke-miterlimit="10"/>
<path d="M1180.38 468.842C1156.4 487.062 1176.87 221.1 973.792 200.711C770.725 180.321 740.389 444.004 466.843 317.826C193.296 191.649 134.573 8.46036 24.806 46.007" stroke="#1F1F1F" stroke-miterlimit="10"/>
<path d="M1177.47 471.811C1158.28 486.385 1182.67 215.768 977.522 199.647C772.369 183.526 743.967 453.328 465.765 320.464C187.563 187.601 132.694 -0.560591 19.8742 38.0359" stroke="#191919" stroke-miterlimit="10"/>
<path d="M1174.55 474.781C1160.16 485.708 1188.48 210.449 981.252 198.597C774.027 186.73 747.559 462.68 464.688 323.117C181.831 183.553 130.815 -9.5674 14.9426 30.0651" stroke="#131313" stroke-miterlimit="10"/>
<path d="M1171.65 477.753C1162.06 485.047 1194.31 205.132 985.009 197.534C775.712 189.937 751.164 472.006 463.638 325.757C176.111 179.521 128.936 -18.5727 10.0246 22.1097" stroke="#0C0C0C" stroke-miterlimit="10"/>
<path d="M1168.74 480.723C1163.94 484.37 1200.11 199.814 988.725 196.485C777.356 193.142 754.742 481.344 462.56 328.409C170.379 175.473 127.058 -27.5795 5.09315 14.1389" stroke="#060606" stroke-miterlimit="10"/>
<path d="M1165.82 483.693C1165.82 483.693 1205.91 194.495 992.469 195.421C779.014 196.346 758.334 490.683 461.497 331.047C164.646 171.426 125.179 -36.5863 0.161703 6.16818" stroke="#BCE008" stroke-miterlimit="10"/>
</g>
</g>
</svg>
