<svg width="226" height="226" viewBox="0 0 226 226" fill="none" xmlns="http://www.w3.org/2000/svg">
<path d="M72.7741 154.794C47.7326 154.794 36.1818 123.661 55.1635 107.328L61.8168 101.603C67.7777 96.4736 71.2062 89.0004 71.2062 81.1365L71.2062 71.1931C71.2062 46.3441 101.938 34.689 118.416 53.2887L126.232 62.1108C131.356 67.8952 138.714 71.2064 146.441 71.2065L152.694 71.2064C177.798 71.2064 189.314 102.472 170.207 118.756L164.28 123.807C158.261 128.937 154.794 136.448 154.794 144.356L154.794 153.226C154.794 178.268 123.66 189.818 107.327 170.837L101.603 164.183C96.4734 158.222 89.0002 154.794 81.1363 154.794L72.7741 154.794Z" fill="#BCE008"/>
<path d="M97.5571 112.946C97.4461 112.759 97.2215 112.683 97.02 112.765C96.9408 112.797 96.8447 112.89 96.6538 113.076L93.9624 115.698C92.9182 116.715 92.0157 117.595 91.3687 118.434C90.6618 119.35 90.181 120.314 90.0581 121.52C89.871 123.356 90.525 125.246 91.4819 126.925C92.4548 128.631 93.8366 130.289 95.3647 131.724C96.8941 133.159 98.6208 134.417 100.322 135.295C101.981 136.151 103.805 136.744 105.466 136.583C107.741 136.363 109.254 134.886 111.182 133.003C111.562 132.623 112.448 131.743 113.143 131.074C113.355 130.87 113.462 130.768 113.497 130.683C113.566 130.511 113.526 130.33 113.392 130.203C113.325 130.14 113.189 130.091 112.917 129.994C109.332 128.871 105.754 126.39 102.985 123.441C100.232 120.511 98.0836 116.908 97.6616 113.422C97.6215 113.154 97.6008 113.02 97.5571 112.946ZM121.762 92.6895C117.246 91.2987 112.288 91.8086 107.989 95.5156C104.919 98.1629 102.466 101.419 100.826 105.147C100.469 105.959 100.29 106.84 100.343 107.725C100.465 109.73 100.722 111.833 100.892 112.965C100.895 112.982 100.897 112.999 100.899 113.016C101.2 115.55 102.858 118.542 105.363 121.209C107.85 123.857 110.978 125.976 113.915 126.89C113.935 126.896 113.955 126.902 113.975 126.909C115.318 127.385 116.804 128.12 118.24 128.182C118.857 128.208 119.449 128.064 120.63 127.776L127.644 126.069C133.257 124.702 135.471 118.547 132.895 114.133C132.712 113.819 132.62 113.662 132.432 113.576C132.244 113.49 132.049 113.526 131.661 113.599C130.493 113.817 129.223 113.988 128.157 114.523C126.81 115.199 126.103 116.284 126.103 117.781C126.103 118.683 125.372 119.414 124.47 119.414C123.568 119.414 122.837 118.683 122.837 117.781C122.837 114.928 124.357 112.741 126.784 111.559C127.381 111.268 129.377 110.588 133.007 110.069C133.348 110.021 133.519 109.997 133.655 109.893C133.79 109.789 133.851 109.648 133.971 109.366C135.113 106.701 134.857 103.531 132.996 101.008C130.229 97.2578 126.21 94.0592 121.762 92.6895Z" fill="#0B0D0E"/>
</svg>
