<svg width="226" height="226" viewBox="0 0 226 226" fill="none" xmlns="http://www.w3.org/2000/svg">
<path d="M72.774 154.794C47.7326 154.794 36.1818 123.661 55.1634 107.328L61.8167 101.603C67.7777 96.4736 71.2062 89.0004 71.2062 81.1365L71.2062 71.1931C71.2062 46.3441 101.938 34.689 118.416 53.2887L126.232 62.1108C131.356 67.8952 138.714 71.2064 146.441 71.2065L152.694 71.2064C177.798 71.2064 189.314 102.472 170.207 118.756L164.28 123.807C158.261 128.937 154.794 136.448 154.794 144.356L154.794 153.226C154.794 178.268 123.66 189.818 107.327 170.837L101.603 164.183C96.4733 158.222 89.0002 154.794 81.1362 154.794L72.774 154.794Z" fill="#BCE008"/>
<path d="M105.274 132.392L102.075 135.591C101.437 136.229 100.403 136.229 99.7655 135.591L96.9481 132.774L93.1093 136.614L90.0302 133.535L93.869 129.695L91.0565 126.882C90.4189 126.245 90.419 125.21 91.0565 124.573L94.2557 121.374L105.274 132.392ZM130.31 111.706L126.02 115.996C125.383 116.633 124.349 116.633 123.712 115.996L118.719 111.002L109.055 120.667L114.05 125.662C114.687 126.299 114.687 127.333 114.05 127.97L109.761 132.26L94.3876 116.887L98.6766 112.597C99.3142 111.96 100.348 111.96 100.986 112.597L105.975 117.587L115.64 107.923L110.647 102.932C110.01 102.294 110.01 101.26 110.647 100.623L114.937 96.3335L130.31 111.706ZM134.664 95.0591L130.826 98.896L133.641 101.711C134.279 102.349 134.279 103.383 133.641 104.021L130.442 107.219L119.424 96.2007L122.623 93.0024C123.261 92.3647 124.295 92.3647 124.932 93.0024L127.747 95.8169L131.585 91.98L134.664 95.0591Z" fill="#0B0D0E"/>
</svg>
