<svg width="48" height="48" viewBox="0 0 48 48" fill="none" xmlns="http://www.w3.org/2000/svg">
<path d="M9.864 8.57129C8.15904 8.57129 6.5239 9.24858 5.31831 10.4542C4.11272 11.6598 3.43543 13.2949 3.43543 14.9999V16.2856H44.5714V14.9999C44.5714 13.2949 43.8941 11.6598 42.6885 10.4542C41.483 9.24858 39.8478 8.57129 38.1429 8.57129H9.864ZM3.43543 32.9999V18.857H44.5714V32.9999C44.5714 34.7048 43.8941 36.34 42.6885 37.5456C41.483 38.7511 39.8478 39.4284 38.1429 39.4284H9.86571C8.16075 39.4284 6.52562 38.7511 5.32003 37.5456C4.11444 36.34 3.43714 34.7048 3.43714 32.9999M31.2857 28.2856C30.9447 28.2856 30.6177 28.421 30.3766 28.6622C30.1355 28.9033 30 29.2303 30 29.5713C30 29.9123 30.1355 30.2393 30.3766 30.4804C30.6177 30.7215 30.9447 30.857 31.2857 30.857H37.2857C37.6267 30.857 37.9537 30.7215 38.1949 30.4804C38.436 30.2393 38.5714 29.9123 38.5714 29.5713C38.5714 29.2303 38.436 28.9033 38.1949 28.6622C37.9537 28.421 37.6267 28.2856 37.2857 28.2856H31.2857Z" fill="white"/>
</svg>
