<svg width="48" height="48" viewBox="0 0 48 48" fill="none" xmlns="http://www.w3.org/2000/svg">
<path d="M11.232 40C10.3107 40 9.542 39.692 8.926 39.076C8.31 38.46 8.00133 37.6907 8 36.768V11.232C8 10.3107 8.30867 9.542 8.926 8.926C9.54333 8.31 10.312 8.00133 11.232 8H36.77C37.69 8 38.4587 8.30867 39.076 8.926C39.6933 9.54333 40.0013 10.312 40 11.232V36.77C40 37.69 39.692 38.4587 39.076 39.076C38.46 39.6933 37.6907 40.0013 36.768 40H11.232ZM14 33H24V31H14V33ZM18 23.924L24 20.924L30 23.924V10H18V23.924Z" fill="white"/>
</svg>
