<svg width="48" height="48" viewBox="0 0 48 48" fill="none" xmlns="http://www.w3.org/2000/svg">
<path d="M29.82 2H6V46H42V14.18L29.82 2ZM30 21C30 22.5913 29.3679 24.1174 28.2426 25.2426C27.1174 26.3679 25.5913 27 24 27C22.4087 27 20.8826 26.3679 19.7574 25.2426C18.6321 24.1174 18 22.5913 18 21C18 19.4087 18.6321 17.8826 19.7574 16.7574C20.8826 15.6321 22.4087 15 24 15C25.5913 15 27.1174 15.6321 28.2426 16.7574C29.3679 17.8826 30 19.4087 30 21ZM12 38C12 35.8783 12.8429 33.8434 14.3431 32.3431C15.8434 30.8429 17.8783 30 20 30H28C30.1217 30 32.1566 30.8429 33.6569 32.3431C35.1571 33.8434 36 35.8783 36 38V40H12V38Z" fill="white"/>
</svg>
