<svg width="402" height="756" viewBox="0 0 402 756" fill="none" xmlns="http://www.w3.org/2000/svg">
<path d="M7.03763 211.911C19.1591 181.904 62.8068 185.723 69.5333 217.379L94.8868 336.696C95.9354 341.631 98.0951 346.262 101.201 350.238L176.306 446.354C196.233 471.855 171.102 507.746 140.323 497.744L24.3153 460.042C19.5172 458.483 14.4266 458.037 9.4307 458.74L-111.362 475.724C-143.41 480.23 -161.926 440.521 -137.874 418.867L-47.22 337.252C-43.4705 333.877 -40.5395 329.691 -38.6499 325.013L7.03763 211.911Z" stroke="#8F9405" stroke-width="0.4"/>
<path d="M36.1364 211.49C53.2844 184.043 95.6059 195.383 96.7331 227.726L100.982 349.633C101.158 354.675 102.481 359.611 104.849 364.066L162.123 471.764C177.319 500.338 146.337 531.32 117.763 516.124L10.064 458.851C5.60967 456.482 0.67377 455.16 -4.36825 454.984L-126.275 450.735C-158.619 449.607 -169.958 407.285 -142.512 390.137L-39.0622 325.505C-34.7835 322.831 -31.1702 319.218 -28.497 314.94L36.1364 211.49Z" stroke="#8F9405" stroke-width="0.4"/>
<path d="M64.8653 216.125C86.5189 192.073 126.228 210.59 121.722 242.638L104.738 363.431C104.035 368.427 104.481 373.517 106.04 378.315L143.742 494.323C153.745 525.101 117.854 550.233 92.3525 530.306L-3.76476 455.201C-7.74011 452.095 -12.3714 449.935 -17.3063 448.887L-136.623 423.533C-168.279 416.807 -172.098 373.158 -142.09 361.037L-28.9893 315.35C-24.3114 313.46 -20.1256 310.53 -16.7501 306.78L64.8653 216.125Z" stroke="#8F9405" stroke-width="0.4"/>
<path d="M92.3523 225.681C117.854 205.754 153.744 230.885 143.741 261.664L106.04 377.672C104.48 382.47 104.035 387.561 104.737 392.557L121.722 513.348C126.228 545.396 86.5186 563.914 64.865 539.862L-16.7502 449.207C-20.1258 445.458 -24.3117 442.527 -28.9895 440.637L-142.091 394.95C-172.098 382.828 -168.279 339.18 -136.623 332.453L-17.3066 307.1C-12.3717 306.052 -7.74056 303.892 -3.76522 300.786L92.3523 225.681Z" stroke="#8F9405" stroke-width="0.4"/>
<path d="M117.764 239.867C146.338 224.672 177.319 255.653 162.124 284.227L104.85 391.926C102.481 396.381 101.159 401.317 100.983 406.359L96.7341 528.265C95.6068 560.608 53.2851 571.949 36.137 544.502L-28.4963 441.052C-31.1695 436.774 -34.7828 433.16 -39.0615 430.487L-142.511 365.854C-169.958 348.706 -158.617 306.384 -126.274 305.257L-4.36766 301.008C0.674341 300.832 5.61014 299.51 10.0645 297.141L117.764 239.867Z" stroke="#8F9405" stroke-width="0.4"/>
<path d="M140.326 258.246C171.104 248.243 196.235 284.134 176.309 309.635L101.203 405.753C98.097 409.728 95.9375 414.359 94.8889 419.294L69.5358 538.61C62.8093 570.267 19.1613 574.086 7.03977 544.078L-38.6478 430.977C-40.5373 426.299 -43.4683 422.113 -47.2178 418.738L-137.872 337.122C-161.924 315.469 -143.407 275.759 -111.359 280.265L9.43277 297.25C14.4287 297.952 19.5191 297.507 24.3172 295.948L140.326 258.246Z" stroke="#8F9405" stroke-width="0.4"/>
<path d="M159.352 280.267C191.4 275.76 209.917 315.47 185.865 337.123L95.2097 418.739C91.4603 422.114 88.5294 426.3 86.6398 430.978L40.9528 544.079C28.8314 574.087 -14.8167 570.268 -21.5433 538.612L-46.8969 419.295C-47.9455 414.36 -50.1051 409.729 -53.2114 405.753L-128.316 309.636C-148.243 284.135 -123.112 248.244 -92.3329 258.247L23.6746 295.949C28.4727 297.508 33.5631 297.953 38.559 297.251L159.352 280.267Z" stroke="#8F9405" stroke-width="0.4"/>
</svg>
