<svg width="756" height="756" viewBox="0 0 756 756" fill="none" xmlns="http://www.w3.org/2000/svg">
<path d="M361.038 211.911C373.159 181.904 416.807 185.723 423.533 217.379L448.887 336.696C449.935 341.631 452.095 346.262 455.201 350.238L530.306 446.354C550.233 471.855 525.102 507.746 494.323 497.744L378.315 460.042C373.517 458.483 368.427 458.037 363.431 458.74L242.638 475.724C210.59 480.23 192.074 440.521 216.126 418.867L306.78 337.252C310.529 333.877 313.46 329.691 315.35 325.013L361.038 211.911Z" stroke="#8F9405" stroke-width="0.4"/>
<path d="M390.136 211.49C407.285 184.043 449.606 195.383 450.733 227.726L454.982 349.633C455.158 354.675 456.481 359.611 458.85 364.066L516.123 471.764C531.319 500.338 500.337 531.32 471.763 516.124L364.064 458.851C359.61 456.482 354.674 455.16 349.632 454.984L227.725 450.735C195.382 449.607 184.042 407.285 211.489 390.137L314.938 325.505C319.217 322.831 322.83 319.218 325.503 314.94L390.136 211.49Z" stroke="#8F9405" stroke-width="0.4"/>
<path d="M418.865 216.126C440.519 192.074 480.228 210.591 475.722 242.639L458.738 363.431C458.035 368.427 458.481 373.518 460.04 378.316L497.742 494.323C507.745 525.102 471.854 550.233 446.352 530.307L350.235 455.202C346.26 452.095 341.629 449.936 336.694 448.887L217.377 423.534C185.72 416.807 181.902 373.159 211.91 361.038L325.011 315.351C329.689 313.461 333.874 310.53 337.25 306.781L418.865 216.126Z" stroke="#8F9405" stroke-width="0.4"/>
<path d="M446.352 225.681C471.853 205.754 507.744 230.885 497.741 261.664L460.04 377.672C458.48 382.47 458.035 387.561 458.737 392.557L475.722 513.348C480.228 545.396 440.519 563.914 418.865 539.862L337.25 449.207C333.874 445.458 329.688 442.527 325.01 440.637L211.909 394.95C181.902 382.828 185.72 339.18 217.377 332.453L336.693 307.1C341.628 306.052 346.259 303.892 350.235 300.786L446.352 225.681Z" stroke="#8F9405" stroke-width="0.4"/>
<path d="M471.764 239.867C500.338 224.672 531.319 255.653 516.124 284.227L458.85 391.926C456.481 396.381 455.159 401.317 454.983 406.359L450.734 528.265C449.607 560.608 407.285 571.949 390.137 544.502L325.504 441.052C322.831 436.774 319.217 433.16 314.939 430.487L211.489 365.854C184.042 348.706 195.383 306.384 227.726 305.257L349.632 301.008C354.674 300.832 359.61 299.51 364.065 297.141L471.764 239.867Z" stroke="#8F9405" stroke-width="0.4"/>
<path d="M494.326 258.246C525.104 248.243 550.235 284.134 530.308 309.635L455.203 405.753C452.097 409.728 449.937 414.359 448.889 419.294L423.536 538.61C416.809 570.267 373.161 574.086 361.04 544.078L315.352 430.977C313.463 426.299 310.532 422.113 306.782 418.738L216.128 337.122C192.076 315.469 210.593 275.759 242.641 280.265L363.433 297.25C368.429 297.952 373.519 297.507 378.317 295.948L494.326 258.246Z" stroke="#8F9405" stroke-width="0.4"/>
<path d="M513.352 280.267C545.4 275.761 563.917 315.47 539.864 337.124L449.21 418.739C445.46 422.115 442.529 426.301 440.64 430.978L394.953 544.08C382.831 574.087 339.183 570.268 332.457 538.612L307.103 419.295C306.054 414.36 303.895 409.729 300.789 405.754L225.684 309.637C205.757 284.135 230.888 248.244 261.667 258.247L377.675 295.949C382.473 297.508 387.563 297.954 392.559 297.251L513.352 280.267Z" stroke="#8F9405" stroke-width="0.4"/>
</svg>
