<svg width="70" height="110" viewBox="0 0 70 110" fill="none" xmlns="http://www.w3.org/2000/svg">
<path d="M66.4409 0.240688C66.205 0.472034 65.8994 1.95085 65.7691 3.51139C65.1635 9.84233 61.9376 18.4073 58.0707 23.7721C54.7875 28.3424 48.2997 34.6611 45.2633 36.2318L44.2403 36.7787L42.7422 34.5015C39.8371 30.1176 35.734 26.8389 32.7531 26.6436C29.9101 26.4272 26.6612 28.4535 25.3538 31.2572C23.736 34.7267 24.7743 38.5389 28.3121 42.0232C31.1583 44.8864 34.1699 46.2054 37.5221 46.0619C38.9051 46.0242 40.1268 45.7832 40.2248 45.5729C40.3229 45.3626 40.6101 45.1126 40.8671 45.0191C41.124 44.9255 41.11 45.047 40.8041 45.2457C40.4304 45.4981 40.5379 45.6336 41.1453 45.7035C41.8742 45.7873 41.935 46.1144 41.667 48.336C40.6884 56.8396 37.4176 63.7624 30.2507 72.4524C27.6049 75.6559 23.4993 79.8854 20.5916 82.3695C18.6485 84.0661 18.742 84.323 19.7102 79.8678C19.9715 78.667 19.9827 77.1789 19.7349 76.338C19.2765 74.759 17.1641 72.7926 16.5569 73.3628C16.3724 73.5754 14.0914 78.1011 11.5046 83.4655C8.77077 89.1453 5.61182 95.0962 4.02172 97.6827C0.610358 103.26 -0.437903 105.416 0.157877 105.694C0.403199 105.809 0.711715 106.336 0.882411 106.885C1.07653 107.659 1.5532 108.009 3.28679 108.775C4.45964 109.279 5.56005 109.664 5.7843 109.641C6.00856 109.617 7.52441 108.745 9.19207 107.731C12.7493 105.592 18.9086 102.449 25.3482 99.4354C30.1482 97.1937 34.6442 93.9569 34.8821 92.5319C35.05 91.7142 34.0965 90.3736 33.0101 89.867C32.6596 89.7035 32.3909 89.3649 32.4188 89.1219C32.4468 88.879 31.2531 88.877 29.737 89.1087C28.221 89.3404 26.9619 89.4786 26.9245 89.3758C26.8871 89.2731 27.9123 88.1725 29.1757 86.927C33.4238 82.8493 40.6303 73.7084 41.9329 70.7319C42.1593 70.1548 43.0255 68.2974 43.8099 66.6152C45.5282 63.0218 45.8292 62.0102 46.7505 57.1065C47.5693 52.8803 47.6571 49.764 47.1 45.8348C46.9033 44.3352 46.7627 42.9896 46.8118 42.8845C46.9752 42.534 51.6044 39.7434 52.1044 39.6778C53.0878 39.5818 57.4224 35.5017 58.6996 33.4946C58.9798 32.9853 59.8345 31.9758 60.5748 31.2117C65.5024 26.0429 69.6547 14.0272 69.2786 5.95856C69.0859 2.07139 67.6039 -0.88097 66.4409 0.240688ZM30.7378 28.8611C30.3454 29.0621 29.9996 29.0716 29.9622 28.9688C29.8313 28.6091 30.6324 28.172 31.053 28.3681C31.2633 28.4661 31.1652 28.6764 30.7378 28.8611ZM47.3668 39.7727C45.594 40.738 45.5635 40.2544 47.3316 39.1162C48.0953 38.5764 48.7307 38.4033 48.7027 38.6463C48.6748 38.8892 48.0488 39.408 47.3668 39.7727ZM49.8478 40.0336C49.6844 40.384 48.8529 40.9776 47.9817 41.382C46.6316 41.9898 46.4587 41.9945 46.9445 41.4104C47.2457 41.0389 47.6194 40.7864 47.7946 40.8682C47.9699 40.9499 48.2408 40.7349 48.4042 40.3844C48.6494 39.8587 49.6864 39.1903 50.0368 39.3537C50.1069 39.3864 50.0112 39.6831 49.8478 40.0336ZM38.4488 35.6568C39.0564 36.3668 39.7061 37.3524 39.9609 37.8125C40.3629 38.5973 40.2952 38.6511 38.9404 39.086C36.5391 39.8436 33.4041 39.7044 31.3714 38.7565C29.0584 37.6779 28.8783 36.7833 30.59 34.8508C31.2112 34.1592 31.795 33.3647 31.9608 33.1007C32.0915 32.8203 32.4863 32.7058 32.8694 32.7991C33.2713 32.9438 33.6871 32.967 33.8763 32.9273C34.5093 32.6678 37.4463 34.4213 38.4488 35.6568ZM39.3568 41.0295C37.2942 41.5183 36.8853 41.1143 38.8941 40.5577C39.8215 40.3075 40.6321 40.2162 40.6882 40.3703C40.7443 40.5245 40.165 40.8517 39.3568 41.0295ZM25.3859 92.5837C23.4263 93.6753 21.4082 94.5262 21.7258 94.1196C22.1601 93.5542 25.8809 91.7052 26.2477 91.8336C26.423 91.9153 26.0166 92.2378 25.3859 92.5837ZM30.2087 96.2406C29.2254 96.9768 28.1533 97.6288 27.81 97.7247C27.4315 97.8043 28.1929 97.178 29.4331 96.3483C32.1494 94.4576 32.6844 94.4084 30.2087 96.2406Z" fill="#BCE008"/>
</svg>
