<svg width="35" height="126" viewBox="0 0 35 126" fill="none" xmlns="http://www.w3.org/2000/svg">
<path d="M24.1294 125.062C24.0134 124.752 24.3614 123.283 24.9028 121.814C27.0296 115.82 27.7256 106.694 26.4882 100.198C25.4441 94.6681 22.2346 86.1996 20.1465 83.4928L19.4505 82.5648L17.1303 83.9955C12.6447 86.741 7.54043 87.9784 4.75627 86.8957C2.08812 85.8903 0 82.6808 0 79.5872C0 75.759 2.55215 72.7429 7.23108 71.0801C11.0206 69.688 14.3075 69.7654 17.285 71.3121C18.5224 71.9308 19.5278 72.6655 19.5278 72.8975C19.5278 73.1295 19.6825 73.4776 19.8758 73.6709C20.0692 73.8643 20.1078 73.7482 19.9145 73.4389C19.6825 73.0522 19.8371 72.9749 20.4172 73.1682C21.1132 73.4002 21.3066 73.1295 22.0026 71.0028C24.7094 62.8823 24.6708 55.2258 21.8479 44.3212C20.8039 40.2997 18.8704 34.7313 17.285 31.2511C16.2409 28.8923 16.4343 28.699 15.4289 33.1459C15.1582 34.3447 14.5395 35.6981 13.9595 36.3554C12.8767 37.5928 10.1312 38.4822 9.8219 37.7088C9.74456 37.4382 9.58988 32.3725 9.51255 26.4175C9.43521 20.1145 9.08719 13.3861 8.73917 10.3699C8.00446 3.87357 7.96579 1.4761 8.62316 1.4761C8.89384 1.4761 9.39654 1.12808 9.78323 0.702723C10.2859 0.0840213 10.866 -0.0319854 12.7607 0.00668351C14.0368 0.0453524 15.1969 0.161359 15.3902 0.277366C15.5836 0.393372 16.589 1.82412 17.6717 3.44821C19.9918 6.88974 24.2454 12.3421 28.8083 17.7944C32.2112 21.8546 34.918 26.6882 34.5313 28.0803C34.338 28.8923 32.9072 29.7044 31.7085 29.7044C31.3218 29.7044 30.9351 29.8977 30.8578 30.1297C30.7804 30.3618 29.6977 29.8591 28.4216 29.0083C27.1456 28.1576 26.0628 27.5003 25.9855 27.5776C25.9082 27.6549 26.3722 29.0857 26.9909 30.7484C29.1177 36.2394 31.7858 47.5694 31.7085 50.8176C31.6698 51.4363 31.6698 53.4857 31.6698 55.3419C31.7085 59.3247 31.5538 60.3688 30.3164 65.2024C29.2724 69.3787 28.0349 72.2402 25.8695 75.5657C25.0574 76.8418 24.3614 78.0018 24.3614 78.1178C24.3614 78.5045 27.3776 82.9901 27.8029 83.2608C28.6536 83.7635 30.8578 89.2931 31.1671 91.6519C31.2058 92.232 31.5538 93.508 31.9018 94.5134C34.1833 101.28 32.8686 113.925 29.1177 121.079C27.3002 124.52 24.7094 126.57 24.1294 125.062ZM3.86689 84.0342C3.59621 83.6861 3.28686 83.5315 3.20952 83.6088C2.93884 83.8795 3.4802 84.6142 3.94423 84.6142C4.17624 84.6142 4.17624 84.3822 3.86689 84.0342ZM23.5494 81.1727C22.3506 79.5486 22.1186 79.9739 23.24 81.7527C23.704 82.5648 24.2067 82.9901 24.2841 82.7581C24.3614 82.5261 24.0134 81.7914 23.5494 81.1727ZM25.9082 81.9847C25.9082 81.598 25.4055 80.7086 24.7868 79.9739C23.82 78.8525 23.6654 78.7752 23.8587 79.5099C23.9747 79.9739 24.2067 80.3606 24.4001 80.3606C24.5934 80.3606 24.7481 80.67 24.7481 81.0567C24.7481 81.6367 25.4055 82.6808 25.7921 82.6808C25.8695 82.6808 25.9082 82.3714 25.9082 81.9847ZM13.7275 81.134C14.5782 80.7473 15.5836 80.1286 16.0089 79.8193C16.705 79.2779 16.6663 79.2006 15.6222 78.2338C13.7661 76.5324 10.866 75.3337 8.62316 75.3337C6.07102 75.3337 5.52965 76.0684 6.26436 78.5432C6.53504 79.4326 6.72839 80.3993 6.76706 80.7086C6.76706 81.018 7.07641 81.2887 7.4631 81.366C7.88845 81.4047 8.27514 81.5594 8.42982 81.6754C8.89384 82.1781 12.2967 81.83 13.7275 81.134ZM16.821 76.6484C15.1582 75.3337 14.6168 75.527 16.2023 76.8804C16.937 77.4991 17.633 77.9245 17.749 77.8085C17.865 77.6925 17.4783 77.1511 16.821 76.6484ZM25.9468 24.0201C24.6321 22.2026 23.1627 20.5785 23.2787 21.0812C23.4333 21.7773 26.0242 25.0254 26.4109 25.0641C26.6042 25.0641 26.3722 24.6001 25.9468 24.0201ZM31.8632 22.744C31.2831 21.6613 30.5871 20.6172 30.3164 20.3852C30.0071 20.1532 30.4324 21.0426 31.2058 22.3186C32.8686 25.1801 33.3326 25.4508 31.8632 22.744Z" fill="#BCE008"/>
</svg>
